<svg version="1.2" xmlns="http://www.w3.org/2000/svg" viewBox="0 0 1587 1591" width="1587" height="1591">
	<title>Bancolombia_S</title>
	<style>
		.s0 { fill: #000000 } 
	</style>
	<path id="Layer" class="s0" d="m229.5 275.5c-9.9-38.6 14.1-82.1 52.9-94.3 298.4-86.5 596.2-142.6 904.4-180.6 33.7-3.6 66.5 18.2 78.7 51.6 28.6 78.5 42.7 117.9 70.7 196.8 13.4 37.5-6.4 74.9-42.6 79.7-315.3 46.7-621 110.9-925.9 204.7-37.2 12.4-73.8-6.4-83.2-42.9-22.2-86.2-33.2-129.2-55-215zm1353.4 448.6c11.9 36.9-4 72.5-35.1 77.6-490.6 78.8-968.9 210.6-1421.4 417.9-36.4 17.7-73.2-0.5-80.9-39.9-17.8-92.4-26.6-138.3-44.1-230.5-6.8-36.1 12.8-77 45.2-92.4 445.6-197.1 915.4-316.3 1397.9-377.8 31.8-4.2 63.9 19.4 75.7 54.7 25.5 75.9 38 114 62.7 190.4zm-4 516.1c10.7 34.9-3.5 68.9-32.4 75.9-301 73-595.5 164.3-887.1 268.7-41.7 15.8-86.9-4.8-97.9-45.1-23.5-85.8-35.2-128.6-58.3-214.2-9.7-35.9 11.1-74.9 48.1-88.5 291.7-100.2 586.2-178.9 887.4-244.3 33.3-7 68.2 17.6 80.2 55.4 24.4 76.7 36.3 115.1 60 192.1z"/>
</svg>